<?xml version="1.0" encoding="UTF-8"?> <svg xmlns="http://www.w3.org/2000/svg" id="Layer_1" data-name="Layer 1" viewBox="0 0 165 71.43"><defs><style> .cls-1 { fill: #e4032e; } </style></defs><path class="cls-1" d="M29.45,24.78h-15.55v-11.08h44.12v11.07h-15.55v33.02h-13.02V24.78ZM53.42,57.78l19.2-44.07h24.22l19.2,44.07h-14.39l-4.04-10.29h-25.65l-4.04,10.29h-14.52ZM75.75,37.73h18.03l-5.53-14.13h-6.9l-5.6,14.13ZM128.02,57.78h13.02v-.03h6.91v-10.52h-6.91v-23.16h6.91v-10.52h-27.07v10.52h7.14v23.16h-7.14v10.52h7.14v.03ZM165,0v71.43H0V0h165ZM155.72,9.28H9.28v52.87h146.45V9.28Z"></path></svg> 